<svg version="1.0" xmlns="http://www.w3.org/2000/svg" xmlns:xlink="http://www.w3.org/1999/xlink"
 width="1024.000000pt" height="1024.000000pt" viewBox="0 0 1024.000000 1024.000000" 
 >

<g transform="translate(0.000000,1024.000000) scale(0.100000,-0.100000)"
fill="#ff3e1d" stroke="none">
<path d="M5200 9771 c-85 -10 -107 -27 -157 -121 -51 -96 -70 -121 -118 -161
-26 -22 -48 -40 -49 -41 0 0 -102 -4 -226 -7 -192 -5 -230 -9 -260 -25 -19
-10 -59 -19 -90 -20 -69 -3 -152 -41 -200 -91 l-35 -36 0 -234 1 -234 32 -47
c18 -25 37 -67 42 -92 4 -25 16 -52 27 -59 43 -31 53 -44 53 -67 0 -46 -20
-54 -142 -55 -149 -1 -225 -16 -335 -66 -17 -8 -33 -15 -36 -15 -10 0 -129
-71 -192 -113 -99 -68 -159 -119 -251 -218 -48 -52 -109 -116 -136 -144 -26
-27 -51 -61 -54 -75 -2 -14 -11 -48 -19 -76 -8 -28 -15 -60 -15 -71 0 -11 -12
-30 -26 -44 -14 -13 -40 -44 -57 -69 l-32 -45 -1 -260 c0 -143 -4 -283 -8
-311 -8 -55 -1 -77 54 -169 16 -27 45 -82 65 -121 35 -72 46 -85 145 -179 29
-27 77 -80 106 -117 30 -37 65 -78 77 -91 12 -13 44 -46 70 -75 27 -29 54 -52
60 -52 16 -1 72 -53 87 -80 6 -12 24 -26 39 -31 19 -7 47 -38 85 -94 33 -48
71 -92 91 -104 56 -33 67 -66 56 -166 -8 -69 -18 -99 -51 -162 -22 -42 -40
-82 -40 -89 0 -8 -12 -16 -27 -20 -16 -3 -43 -10 -61 -16 -38 -11 -117 14
-133 43 -5 10 -38 37 -73 60 -42 27 -72 56 -87 83 -39 69 -71 108 -155 189
-67 63 -90 93 -124 162 -23 47 -44 85 -48 85 -4 0 -37 25 -75 55 -37 30 -89
64 -115 75 l-47 21 -54 -26 c-78 -39 -159 -66 -219 -74 -46 -6 -59 -14 -108
-62 -59 -58 -102 -115 -135 -182 -12 -23 -31 -53 -44 -67 -12 -14 -25 -36 -28
-49 -6 -25 15 -171 35 -238 10 -36 10 -45 -4 -60 -14 -15 -18 -52 -22 -198 -4
-99 -14 -229 -23 -288 -14 -94 -14 -118 -3 -180 9 -45 12 -121 10 -202 -5
-198 1 -444 17 -639 6 -66 6 -131 0 -165 -5 -33 -6 -122 -1 -216 11 -220 11
-323 -3 -515 -11 -160 -9 -208 16 -400 13 -101 14 -1087 1 -1167 -9 -55 -8
-68 9 -101 27 -53 36 -58 121 -72 87 -15 184 -1 199 28 5 10 7 268 6 592 -2
316 0 616 5 667 5 55 5 106 -1 130 -6 22 -10 363 -9 842 0 771 -1 807 -20 888
-24 99 -25 146 -5 228 8 33 15 101 15 150 0 50 7 180 15 290 8 110 15 232 15
272 0 67 2 75 32 108 36 42 115 85 155 85 35 0 127 -94 143 -148 7 -20 18 -51
26 -69 8 -17 21 -62 30 -100 9 -37 22 -90 29 -118 24 -87 33 -165 46 -367 10
-163 10 -202 -1 -225 -7 -15 -19 -91 -26 -168 -30 -310 -29 -305 -72 -395 -28
-60 -40 -98 -40 -131 0 -27 -9 -63 -21 -87 -16 -31 -21 -61 -22 -129 -1 -123
1 -127 68 -119 70 8 123 36 146 75 10 17 51 57 90 88 40 31 102 85 140 120 61
57 72 63 110 63 24 0 59 9 81 20 l38 21 45 -37 c96 -79 111 -100 123 -177 6
-40 18 -98 26 -129 8 -32 14 -66 14 -75 0 -10 9 -35 20 -56 11 -20 20 -47 20
-59 0 -13 7 -36 16 -53 9 -16 20 -63 25 -104 6 -41 15 -83 20 -94 6 -11 21
-56 33 -101 13 -44 39 -113 59 -151 19 -39 45 -104 58 -145 12 -41 30 -92 40
-112 11 -21 19 -49 19 -63 0 -14 9 -44 20 -66 11 -21 29 -57 40 -78 11 -22 20
-55 20 -73 1 -18 7 -44 15 -58 20 -36 20 -159 -1 -188 -9 -13 -18 -50 -21 -83
-5 -49 -11 -64 -33 -83 -16 -13 -35 -37 -44 -55 -17 -31 -83 -70 -151 -87 -45
-11 -110 -89 -162 -194 -42 -84 -61 -108 -165 -212 -64 -64 -124 -131 -133
-148 -17 -33 -149 -170 -164 -170 -4 0 -21 -19 -37 -43 -16 -23 -45 -62 -65
-87 -20 -25 -58 -78 -85 -119 -84 -127 -91 -136 -108 -150 -9 -7 -16 -23 -16
-35 0 -61 78 -63 179 -6 39 22 77 40 86 40 8 0 32 9 52 20 21 11 47 20 58 20
11 0 29 6 40 13 30 20 150 68 218 88 34 10 82 24 107 32 45 15 112 27 270 48
47 6 137 24 200 41 84 22 152 32 250 38 83 4 152 14 179 24 37 14 66 15 175 9
72 -4 154 -5 181 -3 128 9 276 1 311 -17 10 -6 71 -14 134 -18 138 -8 143 -8
247 1 72 6 86 4 110 -12 24 -16 47 -19 159 -19 99 0 139 -4 165 -16 19 -9 54
-26 79 -38 25 -11 61 -21 82 -21 38 0 216 -67 246 -92 28 -25 108 -68 124 -68
19 0 96 -35 122 -55 11 -8 29 -15 40 -15 11 0 30 -9 42 -21 29 -27 122 -30
141 -3 23 31 15 80 -21 136 -18 29 -46 79 -61 112 -15 32 -47 80 -71 107 -24
27 -51 63 -60 80 -8 17 -36 56 -60 87 -24 32 -68 89 -98 127 -29 39 -101 119
-160 179 -58 59 -106 111 -106 116 0 4 -24 26 -53 48 -49 37 -118 126 -163
212 -31 57 -115 169 -182 242 l-64 69 5 57 c6 64 39 194 60 232 8 14 22 50 32
80 10 30 26 72 36 92 11 21 19 55 19 77 0 21 9 67 19 102 11 35 22 84 26 109
4 25 18 63 33 85 14 22 40 67 57 100 18 33 53 98 77 145 25 47 52 110 61 140
9 30 27 71 39 90 38 61 76 143 93 205 10 33 23 71 31 85 30 56 55 128 61 170
4 24 21 75 40 112 18 37 33 72 33 79 0 6 27 39 61 74 48 51 72 67 116 81 l55
17 98 -101 c55 -55 114 -108 132 -118 18 -9 58 -37 88 -63 30 -26 76 -61 101
-79 53 -35 84 -70 154 -172 28 -40 70 -94 95 -121 25 -26 55 -61 68 -78 16
-22 32 -31 51 -31 34 0 87 35 109 72 14 24 15 32 3 60 -7 18 -17 61 -21 94 -8
65 -38 117 -86 148 -13 9 -24 23 -24 31 0 20 -57 83 -92 101 -34 18 -58 67
-58 121 0 54 -14 96 -48 147 -17 24 -33 53 -37 64 -3 12 -28 58 -54 104 -46
80 -48 87 -57 193 -9 116 -9 125 -7 435 1 107 1 212 1 234 0 21 7 55 16 75 9
20 23 99 31 176 8 77 23 187 35 245 11 58 26 146 31 195 6 50 17 97 25 106 8
8 14 21 14 28 0 6 34 47 75 91 103 111 129 157 123 221 -6 58 -51 122 -89 127
-51 6 -182 -114 -273 -248 -13 -19 -56 -69 -95 -110 -40 -41 -80 -85 -88 -98
-18 -26 -91 -66 -139 -76 -17 -4 -63 -20 -103 -36 -70 -29 -73 -29 -112 -13
-25 10 -44 25 -50 41 -5 14 -9 127 -8 251 1 245 5 218 -57 356 -18 40 -23 68
-43 230 -7 50 -20 117 -31 150 -14 46 -20 103 -24 244 l-6 183 32 30 c42 39
95 65 160 79 71 15 141 75 162 136 8 24 29 60 46 79 25 28 30 43 30 83 0 30
-5 53 -14 61 -8 6 -25 31 -36 55 -12 24 -42 71 -68 103 -26 32 -58 80 -72 106
-13 26 -41 67 -61 90 -20 23 -44 58 -53 79 -8 20 -30 61 -49 90 -18 28 -41 64
-50 79 -10 15 -20 54 -23 87 -6 49 -3 67 15 101 13 25 21 59 21 89 0 35 9 65
31 107 25 48 30 68 27 105 -6 58 -39 113 -89 146 -36 23 -51 26 -162 30 -67 3
-129 7 -137 11 -8 3 -33 7 -55 8 -81 3 -181 17 -205 30 -14 7 -43 15 -63 19
-60 11 -274 179 -313 244 -12 20 -39 81 -59 136 -41 110 -64 141 -129 173 -44
22 -67 24 -166 13z m110 -421 c11 -6 31 -31 46 -55 14 -25 45 -59 69 -75 23
-16 55 -44 71 -62 16 -18 50 -45 74 -60 25 -14 62 -42 83 -61 21 -19 61 -46
90 -59 140 -69 146 -71 245 -75 54 -2 136 -6 184 -10 96 -6 91 -2 119 -100 16
-56 0 -116 -52 -199 -29 -46 -48 -66 -67 -70 -15 -3 -33 -8 -41 -10 -16 -5
-291 50 -346 70 -22 7 -71 23 -110 35 -72 22 -345 155 -425 207 -84 54 -136
103 -185 174 l-49 70 13 83 c16 100 36 125 136 173 71 35 112 42 145 24z
m-704 -266 c25 -15 60 -49 80 -78 75 -109 94 -132 141 -177 26 -25 67 -58 91
-73 24 -15 52 -42 63 -60 41 -70 177 -149 279 -162 61 -7 85 -19 140 -71 20
-19 63 -47 96 -61 32 -15 70 -35 84 -44 13 -10 34 -18 47 -18 12 0 34 -5 50
-11 50 -20 225 -38 300 -32 74 6 84 4 188 -42 53 -24 175 -55 213 -55 12 0 30
-10 40 -22 9 -12 31 -35 48 -52 18 -17 38 -42 45 -56 7 -14 31 -49 53 -78 54
-71 86 -123 86 -142 0 -8 -8 -31 -19 -50 -31 -59 -85 -74 -288 -78 l-172 -3
-68 35 c-41 21 -99 64 -147 110 -44 41 -92 78 -107 81 -16 4 -61 36 -101 72
-40 36 -84 70 -98 75 -32 13 -110 48 -130 59 -8 5 -40 23 -70 39 -30 17 -73
42 -95 55 -22 13 -60 29 -85 34 -25 5 -112 44 -194 85 -82 42 -159 76 -172 76
-25 0 -120 45 -130 61 -8 14 -124 69 -145 69 -9 0 -33 13 -54 30 -20 16 -46
32 -58 36 -42 13 -75 44 -82 77 -3 17 -14 52 -25 77 -10 25 -26 71 -35 103
-16 55 -16 59 5 130 12 39 27 75 34 79 6 4 42 8 79 8 56 0 77 -5 113 -26z m17
-954 c31 -11 79 -20 106 -20 40 0 59 -7 117 -45 79 -52 79 -52 194 -58 47 -3
102 -13 123 -21 28 -13 53 -15 95 -10 l57 6 42 -46 c23 -25 46 -46 52 -46 6 0
52 -29 103 -64 91 -62 249 -146 276 -146 22 0 150 -129 157 -157 7 -30 56
-105 96 -148 31 -34 82 -127 93 -170 4 -16 27 -71 52 -121 36 -75 44 -102 44
-148 0 -40 7 -71 24 -104 13 -26 27 -67 31 -91 4 -24 14 -59 21 -77 8 -18 14
-49 14 -67 0 -19 16 -81 35 -138 19 -57 42 -140 51 -184 21 -110 29 -416 28
-1005 -2 -436 -4 -501 -19 -545 -9 -27 -21 -84 -25 -125 -12 -104 -45 -286
-64 -340 -25 -77 -86 -301 -86 -319 0 -9 -5 -22 -10 -27 -6 -6 -24 -66 -40
-135 -17 -68 -35 -137 -41 -154 -6 -16 -17 -52 -24 -78 -7 -26 -18 -53 -23
-60 -5 -7 -13 -37 -17 -67 -8 -58 -24 -97 -51 -124 -17 -17 -54 -115 -54 -142
0 -62 -124 -349 -190 -439 -16 -22 -61 -103 -100 -180 -121 -239 -166 -318
-209 -367 -22 -25 -41 -51 -41 -58 0 -6 10 -29 23 -52 18 -34 36 -47 112 -84
51 -24 112 -63 140 -90 28 -25 64 -52 82 -60 71 -31 120 -73 137 -118 11 -29
35 -60 69 -89 53 -45 81 -88 92 -142 4 -16 24 -46 46 -67 47 -45 59 -73 59
-142 0 -45 -4 -56 -30 -81 -41 -39 -83 -38 -182 3 -82 34 -162 55 -298 78
-118 20 -680 9 -725 -14 -48 -24 -143 -27 -252 -6 -85 16 -141 19 -416 17
-175 -1 -329 2 -342 7 -27 10 -40 55 -30 106 6 35 50 84 84 94 17 5 143 141
234 251 38 47 54 59 76 59 23 0 31 7 43 38 10 26 30 48 64 70 152 97 194 136
194 180 0 42 -12 64 -67 127 -23 27 -43 54 -43 60 0 5 -7 24 -16 40 -9 17 -20
51 -25 77 -4 26 -19 62 -32 80 -14 18 -28 44 -32 58 -4 14 -18 43 -31 66 -13
22 -24 50 -24 62 0 12 -6 36 -14 54 -8 18 -20 48 -27 67 -7 18 -22 48 -35 66
-24 36 -54 129 -54 169 0 15 -12 50 -26 77 -14 28 -32 86 -39 128 -7 42 -18
94 -24 116 -6 22 -11 63 -11 90 0 41 -6 57 -30 87 -21 25 -35 58 -44 105 -17
82 -50 207 -65 246 -6 16 -11 58 -11 95 0 37 -6 100 -14 142 -42 218 -47 262
-47 410 0 112 4 168 16 204 10 35 15 91 15 190 0 99 4 148 13 161 28 43 61
148 93 290 23 105 109 274 209 407 49 65 63 78 99 87 29 7 60 27 95 61 41 40
59 50 85 50 37 0 191 68 241 106 38 29 60 73 50 103 -9 28 -60 81 -78 81 -9 0
-28 -11 -44 -24 -36 -29 -153 -56 -248 -56 -46 0 -98 -8 -141 -21 -57 -18 -81
-20 -153 -14 -48 4 -98 14 -116 24 -55 31 -120 74 -153 102 -18 16 -37 29 -41
29 -10 0 -210 134 -279 186 -72 55 -162 180 -174 243 -8 45 4 101 23 101 4 0
10 9 14 19 3 11 29 33 58 49 80 46 131 106 150 177 23 85 28 181 12 224 -7 20
-16 66 -19 104 -7 75 -42 142 -97 187 -28 24 -30 31 -31 90 0 46 6 78 21 110
11 25 21 57 21 71 0 31 54 104 101 140 83 62 193 109 254 109 18 0 65 15 104
33 l72 32 242 2 c219 3 247 1 300 -17z m-1231 -617 c8 -10 28 -40 43 -66 26
-46 28 -55 29 -185 l1 -137 -38 -70 c-21 -38 -43 -73 -50 -77 -7 -4 -38 -8
-69 -8 -55 0 -58 1 -64 28 -3 15 -14 56 -24 92 -11 36 -24 97 -31 135 -10 64
-9 76 11 135 28 85 28 84 84 130 52 43 84 50 108 23z m3615 -2005 c44 -49 52
-80 59 -239 10 -230 11 -450 2 -532 -5 -39 -8 -95 -8 -122 1 -41 -4 -55 -23
-73 -49 -46 -127 -35 -127 17 0 10 -18 53 -41 96 -35 67 -40 85 -35 120 4 26
-1 66 -14 115 -25 97 -26 184 -1 231 15 28 19 57 19 151 0 111 1 117 33 174
18 33 39 65 47 72 24 19 66 14 89 -10z m-3686 -165 c17 -15 41 -48 53 -73 37
-80 66 -118 96 -129 17 -6 30 -17 30 -27 0 -9 16 -39 36 -66 19 -27 40 -62 46
-76 13 -36 22 -140 22 -289 1 -111 -1 -124 -21 -150 -13 -15 -32 -45 -43 -65
-11 -20 -52 -62 -90 -93 -39 -31 -77 -67 -86 -79 -17 -28 -67 -51 -89 -42 -21
7 -19 64 2 112 16 34 18 68 15 287 -2 151 -7 258 -14 275 -6 15 -17 77 -24
138 -6 61 -20 126 -29 144 -32 61 -3 160 46 160 10 0 32 -12 50 -27z"/>
<path d="M4285 7914 c-90 -7 -115 -15 -149 -45 -19 -16 -61 -44 -93 -60 -78
-42 -79 -43 -113 -113 -26 -53 -31 -78 -39 -191 -12 -171 -6 -206 51 -286 63
-87 95 -116 159 -141 65 -26 146 -28 267 -5 73 14 92 23 152 67 38 28 72 60
75 70 3 11 25 29 47 42 37 20 43 29 54 78 26 114 37 233 24 278 -24 91 -70
176 -112 207 -114 84 -193 108 -323 99z m161 -240 c36 -14 45 -24 63 -66 33
-79 29 -164 -11 -234 -26 -48 -40 -60 -85 -80 -29 -13 -62 -24 -71 -24 -47 0
-56 58 -17 110 28 39 35 104 10 113 -8 4 -26 24 -41 46 -24 36 -25 44 -14 70
12 31 45 65 70 74 27 10 54 7 96 -9z"/>
</g>
</svg>
